# xmcd CD database file
#
# Track frame offsets:
#	150
#	15775
#	36752
#	55992
#	81315
#	95032
#	113185
#	132250
#	159152
#	174964
#	188479
#	212664
#	223497
#
# Disc length: 3260 seconds
#
# Revision: 0
# Processed by: cddbd v1.5.1PL2 Copyright (c) Steve Scherf et al.
# Submitted via: CDex 1.51
#
DISCID=a90cba0d
DTITLE=Shigeko Suzuki - Brisa
DYEAR=2000
DGENRE=Jazz
TTITLE0='s Wonderful
TTITLE1=Only Trust Your Heart
TTITLE2=Tristeza
TTITLE3=How Insensitive
TTITLE4=Norwegian Wood
TTITLE5=The Summer Knows
TTITLE6=Agua de Beber
TTITLE7=Honesty
TTITLE8=Blackbird
TTITLE9=How Hight The Moon
TTITLE10=Gathering Stones
TTITLE11=One Note Samba
TTITLE12=Till There Wad You
EXTD=YEAR: 2000
EXTT0=
EXTT1=
EXTT2=
EXTT3=
EXTT4=
EXTT5=
EXTT6=
EXTT7=
EXTT8=
EXTT9=
EXTT10=
EXTT11=
EXTT12=
PLAYORDER=
